/* XPM */
static char *new_plug[] = {
/* columns rows colors chars-per-pixel */
"20 20 24 1",
"  c #000000",
". c #262626",
"X c #3E3E3E",
"o c #734A00",
"O c #4A4A4A",
"+ c #626262",
"@ c #6E6E6E",
"# c #7A7A7A",
"$ c #966200",
"% c #B97A00",
"& c #969600",
"* c #B9B900",
"= c #DC9200",
"- c #FFAA00",
"; c #DCDC00",
": c #FEFE00",
"> c #FFC66B",
", c #868686",
"< c #929292",
"1 c #9E9E9E",
"2 c #B6B6B6",
"3 c #FFFFB1",
"4 c #FFFBF0",
"5 c None",
/* pixels */
"5555=555555555555555",
"555=>=55555555555555",
"55=>:>=5555555555555",
"5=-;:;-=555555555555",
"=-;:4;;-o+++++555555",
":::44:&oO     +++++5",
"=-;;:& . 1#@+      +",
"5$=+++ X.OOOO 3:;* +",
"+     .OOO1O1      +",
"+ 21,##O<O<O<  ,,,,5",
"+ OOOOOO#O<O<  ,,,,5",
"+     .OOO#O#      +",
"5+%%&o X.O+O+ 3:;* +",
"555-:o . +OOO      +",
"555-:-##O     +++++5",
"555->-55#+++++555555",
"5555-555555555555555",
"55555555555555555555",
"55555555555555555555",
"55555555555555555555"
};
